<?xml version="1.0" encoding="UTF-8" standalone="no"?>
<!-- Generator: Adobe Illustrator 17.0.0, SVG Export Plug-In . SVG Version: 6.00 Build 0)  -->

<svg
   xmlns:dc="http://purl.org/dc/elements/1.1/"
   xmlns:cc="http://creativecommons.org/ns#"
   xmlns:rdf="http://www.w3.org/1999/02/22-rdf-syntax-ns#"
   xmlns:svg="http://www.w3.org/2000/svg"
   xmlns="http://www.w3.org/2000/svg"
   xmlns:sodipodi="http://sodipodi.sourceforge.net/DTD/sodipodi-0.dtd"
   xmlns:inkscape="http://www.inkscape.org/namespaces/inkscape"
   version="1.1"
   id="Capa_1"
   x="0px"
   y="0px"
   width="64px"
   height="64px"
   viewBox="0 0 64 64"
   style="enable-background:new 0 0 64 64;"
   xml:space="preserve"
   inkscape:version="0.48.4 r9939"
   sodipodi:docname="ikonaApp.svg"
   inkscape:export-filename="/home/martin/git/html5omalovanky/ikonaApp.png"
   inkscape:export-xdpi="88.934677"
   inkscape:export-ydpi="88.934677"><metadata
     id="metadata17"><rdf:RDF><cc:Work
         rdf:about=""><dc:format>image/svg+xml</dc:format><dc:type
           rdf:resource="http://purl.org/dc/dcmitype/StillImage" /><dc:title></dc:title></cc:Work></rdf:RDF></metadata><defs
     id="defs15" /><sodipodi:namedview
     pagecolor="#ffffff"
     bordercolor="#666666"
     borderopacity="1"
     objecttolerance="10"
     gridtolerance="10"
     guidetolerance="10"
     inkscape:pageopacity="0"
     inkscape:pageshadow="2"
     inkscape:window-width="640"
     inkscape:window-height="480"
     id="namedview13"
     showgrid="false"
     inkscape:zoom="3.6875"
     inkscape:cx="32"
     inkscape:cy="32"
     inkscape:window-x="0"
     inkscape:window-y="0"
     inkscape:window-maximized="0"
     inkscape:current-layer="Capa_1" /><g
     id="g3"
     transform="translate(3.6271186,0.1016949)"><path
       d="m 43.349,34.266 c -0.379,0.512 -0.825,0.95 -1.306,1.303 -1.106,1.48 -2.686,2.247 -4.087,1.787 -1.936,-0.634 -2.785,-3.343 -1.898,-6.053 0.279,-0.851 0.706,-1.584 1.206,-2.192 l 3.276,-7.695 h 0 l 1.351,-3.173 C 37.83,14.118 31.516,11.615 22.95,12.982 4.16,15.98 -1.636,38.968 10.557,49.762 c 11.411,10.102 17.396,3.221 21.721,-4.421 0.489,-0.865 1.649,-1.371 2.637,-1.266 3.146,0.334 9.589,-0.019 11.822,-7.906 0.625,-2.21 0.766,-4.638 0.436,-7.069 l -3.824,5.166 z M 15.255,24.375 c 2.153,0 3.898,1.745 3.898,3.897 0,2.153 -1.745,3.898 -3.898,3.898 -2.153,0 -3.898,-1.745 -3.898,-3.898 0,-2.152 1.745,-3.897 3.898,-3.897 z m -2.249,17.84 c -2.152,0 -3.898,-1.745 -3.898,-3.897 0,-2.152 1.745,-3.898 3.898,-3.898 2.153,0 3.898,1.745 3.898,3.898 0,2.152 -1.745,3.897 -3.898,3.897 z m 7.646,7.796 c -2.153,0 -3.898,-1.745 -3.898,-3.897 0,-2.153 1.745,-3.898 3.898,-3.898 2.153,0 3.898,1.745 3.898,3.898 0,2.152 -1.745,3.897 -3.898,3.897 z M 23.8,25.425 c -2.153,0 -3.898,-1.745 -3.898,-3.898 0,-2.152 1.745,-3.897 3.898,-3.897 2.152,0 3.898,1.745 3.898,3.897 0,2.153 -1.745,3.898 -3.898,3.898 z"
       id="path5"
       inkscape:connector-curvature="0" /><path
       d="m 49.215,11.008 c -2.523,0.163 -4.416,2.606 -4.416,2.606 l 0.021,0.011 c -0.106,0.104 -0.21,0.215 -0.308,0.332 -1.717,2.047 -1.45,5.097 0.597,6.814 2.047,1.717 5.097,1.45 6.814,-0.597 0.622,-0.741 0.98,-1.616 1.091,-2.511 l 0.002,0.001 c 0.929,-4.397 -0.979,-7.365 -0.979,-7.365 0,0 -0.298,0.546 -2.822,0.709 z"
       id="path7"
       inkscape:connector-curvature="0" /><path
       d="m 38.072,35.626 c 0.951,0.553 2.531,-0.092 3.53,-1.441 l 4.652,-6.284 c -2.167,-0.498 -4.109,-1.841 -5.359,-2.89 -0.116,-0.098 -0.226,-0.192 -0.33,-0.284 l -3.023,7.102 c -0.657,1.543 -0.42,3.244 0.53,3.797 z"
       id="path9"
       inkscape:connector-curvature="0" /><path
       d="m 44.648,21.32 c -0.767,-0.644 -1.314,-1.452 -1.64,-2.33 l -1.389,3.263 c 1.226,1.221 3.917,3.345 6.367,3.31 l 2.537,-3.426 c -1.894,0.84 -4.184,0.602 -5.875,-0.817 z"
       id="path11"
       inkscape:connector-curvature="0" /></g></svg>