<?xml version="1.0" encoding="UTF-8" standalone="no"?>
<svg
   xmlns:dc="http://purl.org/dc/elements/1.1/"
   xmlns:cc="http://creativecommons.org/ns#"
   xmlns:rdf="http://www.w3.org/1999/02/22-rdf-syntax-ns#"
   xmlns:svg="http://www.w3.org/2000/svg"
   xmlns="http://www.w3.org/2000/svg"
   xmlns:sodipodi="http://sodipodi.sourceforge.net/DTD/sodipodi-0.dtd"
   xmlns:inkscape="http://www.inkscape.org/namespaces/inkscape"
   id="octocat"
   width="400px"
   height="340px"
   viewBox="-60 0 420 320"
   style="fill: #fff; stroke: #000; stroke-opacity: 0.1"
   version="1.1"
   inkscape:version="0.48.4 r9939"
   sodipodi:docname="obr0.svg">
  <metadata
     id="metadata20">
    <rdf:RDF>
      <cc:Work
         rdf:about="">
        <dc:format>image/svg+xml</dc:format>
        <dc:type
           rdf:resource="http://purl.org/dc/dcmitype/StillImage" />
      </cc:Work>
    </rdf:RDF>
  </metadata>
  <defs
     id="defs18" />
  <sodipodi:namedview
     pagecolor="#ffffff"
     bordercolor="#666666"
     borderopacity="1"
     objecttolerance="10"
     gridtolerance="10"
     guidetolerance="10"
     inkscape:pageopacity="0"
     inkscape:pageshadow="2"
     inkscape:window-width="1918"
     inkscape:window-height="1030"
     id="namedview16"
     showgrid="false"
     inkscape:zoom="1.9632612"
     inkscape:cx="317.56009"
     inkscape:cy="180.15306"
     inkscape:window-x="0"
     inkscape:window-y="0"
     inkscape:window-maximized="1"
     inkscape:current-layer="octocat" />
  <path
     id="puddle"
     d="m 253.61922,287.40763 c 0,20.533 -47.56,37.176 -106.22,37.176 -58.669997,0 -106.229997,-16.643 -106.229997,-37.176 0,-20.533 47.558,-37.18 106.229997,-37.18 58.66,0 106.22,16.65 106.22,37.18 z"
     inkscape:connector-curvature="0"
     style="stroke-width:1" />
  <path
     class="shadow-legs"
     d="m 118.52922,323.19763 v -26.5 c 0,-3.422 -0.619,-6.284 -1.653,-8.701 6.853,5.322 7.316,18.695 7.316,18.695 v 17.004 c 6.166,0.481 12.534,0.773 19.053,0.861 l -0.172,-16.92 c -0.944,-23.13 -20.769,-25.961 -20.769,-25.961 -7.245,-1.645 -7.137,1.991 -6.409,4.34 -7.108,-12.122 -26.157997,-10.556 -26.157997,-10.556 -6.611,2.357 -0.475,6.607 -0.475,6.607 10.387,3.775 11.329997,15.105 11.329997,15.105 v 23.622 c 5.72,0.98 11.71,1.79 17.94,2.4 z"
     id="path4"
     inkscape:connector-curvature="0"
     style="stroke-width:1" />
  <path
     class="shadow-legs"
     d="m 202.07922,275.45763 c 0,0 -19.053,-1.566 -26.16,10.559 0.728,-2.35 0.839,-5.989 -6.408,-4.343 0,0 -19.824,2.832 -20.768,25.961 l -0.174,16.946 c 6.509,-0.025 12.876,-0.254 19.054,-0.671 v -17.219 c 0,0 0.465,-13.373 7.316,-18.695 -1.034,2.417 -1.653,5.278 -1.653,8.701 v 26.775 c 6.214,-0.544 12.211,-1.279 17.937,-2.188 v -24.113 c 0,0 0.944,-11.33 11.33,-15.105 0,-0.01 6.13,-4.26 -0.48,-6.62 z"
     id="path6"
     inkscape:connector-curvature="0"
     style="stroke-width:1" />
  <path
     id="cat"
     d="m 334.85922,133.29763 0.28,-1.389 c -31.162,-6.231 -63.141,-6.294 -82.487,-5.49 3.178,-11.451 4.134,-24.627 4.134,-39.319996 0,-21.073 -7.917,-37.931 -20.77,-50.759 2.246,-7.25 5.246,-23.351 -2.996,-43.9630001 0,0 -14.541,-4.6169999 -47.431,17.396 -12.884,-3.22 -26.596,-4.81 -40.328,-4.81 -15.109,0 -30.376,1.924 -44.615,5.8300001 -33.939997,-23.154 -48.922997,-18.4110001 -48.922997,-18.4110001 -9.78,24.4570001 -3.733,42.5660001 -1.896,47.0630001 -11.495,12.406 -18.513,28.243 -18.513,47.659 0,14.657996 1.669,27.807996 5.745,39.236996 -19.511,-0.71 -50.323,-0.437 -80.373,5.572 l 0.276,1.389 c 30.231,-6.046 61.237,-6.256 80.629,-5.522 0.898,2.366 1.899,4.661 3.021,6.879 -19.177,0.618 -51.922,3.062 -83.303,11.915 l 0.387,1.36 c 31.629,-8.918 64.658,-11.301 83.649,-11.882 11.458,21.358 34.048,35.152 74.235997,39.484 -5.704,3.833 -11.523,10.349 -13.881,21.374 -7.772997,3.718 -32.378997,12.793 -47.141997,-12.599 0,0 -8.264,-15.109 -24.082,-16.292 0,0 -15.344,-0.235 -1.059,9.562 0,0 10.267,4.838 17.351,23.019 0,0 9.241,31.01 53.834997,21.061 v 32.032 c 0,0 -0.942997,11.33 -11.329997,15.105 0,0 -6.137,4.249 0.475,6.606 0,0 28.791997,2.361 28.791997,-21.238 v -34.929 c 0,0 -1.142,-13.852 5.663,-18.667 v 57.371 c 0,0 -0.47,13.688 -7.551,18.881 0,0 -4.723,8.494 5.663,6.137 0,0 19.824,-2.832 20.769,-25.961 l 0.449,-58.06 h 4.765 l 0.453,58.06 c 0.943,23.129 20.768,25.961 20.768,25.961 10.383,2.357 5.663,-6.137 5.663,-6.137 -7.08,-5.193 -7.551,-18.881 -7.551,-18.881 v -56.876 c 6.801,5.296 5.663,18.171 5.663,18.171 v 34.929 c 0,23.6 28.793,21.238 28.793,21.238 6.606,-2.357 0.474,-6.606 0.474,-6.606 -10.386,-3.775 -11.33,-15.105 -11.33,-15.105 v -45.786 c 0,-17.854 -7.518,-27.309 -14.87,-32.3 42.859,-4.25 63.426,-18.089 72.903,-39.591 18.773,0.516 52.557,2.803 84.873,11.919 l 0.384,-1.36 c -32.131,-9.063 -65.692,-11.408 -84.655,-11.96 0.898,-2.172 1.682,-4.431 2.378,-6.755 19.25,-0.8 51.38,-0.79 82.66,5.46 z"
     inkscape:connector-curvature="0"
     style="stroke-width:1" />
  <path
     id="face"
     d="m 214.86922,86.109634 c 9.231,8.363 14.631,18.461996 14.631,29.342996 0,50.804 -37.872,52.181 -84.585,52.181 -46.720997,0 -84.588997,-7.035 -84.588997,-52.181 0,-10.809 5.324,-20.844996 14.441,-29.173996 15.208,-13.881 40.945997,-6.531 70.146997,-6.531 29.07,-0.004 54.72,-7.429 69.95,6.357 z"
     inkscape:connector-curvature="0"
     style="stroke-width:1" />
  <path
     id="eyes"
     d="m 116.77922,118.03763 c 0,13.994 -7.88,25.336 -17.599997,25.336 -9.72,0 -17.6,-11.342 -17.6,-25.336 0,-13.992 7.88,-25.329996 17.6,-25.329996 9.719997,0.01 17.599997,11.339996 17.599997,25.329996 z m 94.43,0 c 0,13.994 -7.88,25.336 -17.6,25.336 -9.72,0 -17.6,-11.342 -17.6,-25.336 0,-13.992 7.88,-25.329996 17.6,-25.329996 9.72,0.01 17.6,11.339996 17.6,25.329996 z"
     inkscape:connector-curvature="0"
     style="stroke-width:1" />
  <path
     id="pupils"
     d="m 111.13922,118.35763 c 0,9.328 -5.26,16.887 -11.733997,16.887 -6.474,0 -11.733,-7.559 -11.733,-16.887 0,-9.331 5.255,-16.894 11.733,-16.894 6.469997,0 11.729997,7.56 11.729997,16.89 z m 94.42,0 c 0,9.328 -5.26,16.887 -11.734,16.887 -6.474,0 -11.733,-7.559 -11.733,-16.887 0,-9.331 5.255,-16.894 11.733,-16.894 6.47,0 11.73,7.56 11.73,16.89 z"
     inkscape:connector-curvature="0"
     style="stroke-width:1" />
  <circle
     id="nose"
     cx="188.5"
     cy="148.56"
     r="4.401"
     sodipodi:cx="188.5"
     sodipodi:cy="148.56"
     sodipodi:rx="4.401"
     sodipodi:ry="4.401"
     transform="translate(-43.320777,-8.0223661)" />
  <path
     id="mouth"
     d="m 134.90922,151.66763 c -0.26,-0.738 0.128,-1.545 0.861,-1.805 0.737,-0.26 1.546,0.128 1.805,0.861 1.134,3.198 4.167,5.346 7.551,5.346 3.384,0 6.417,-2.147 7.551,-5.346 0.26,-0.738 1.067,-1.121 1.805,-0.861 0.738,0.26 1.121,1.067 0.862,1.805 -1.529,4.324 -5.639,7.229 -10.218,7.229 -4.579,0 -8.68,-2.89 -10.21,-7.22 z"
     inkscape:connector-curvature="0"
     style="stroke-width:1" />
  <path
     id="octo"
     d="m 37.320223,171.79763 c 0,1.174 -1.376,2.122 -3.07,2.122 -1.693,0 -3.07,-0.948 -3.07,-2.122 0,-1.175 1.377,-2.127 3.07,-2.127 1.694,0 3.07,0.95 3.07,2.13 z m 8.5,4.72 c 0,1.174 -1.376,2.122 -3.07,2.122 -1.693,0 -3.07,-0.948 -3.07,-2.122 0,-1.175 1.377,-2.127 3.07,-2.127 1.694,0 3.07,0.95 3.07,2.13 z m 5.193,6.14 c 0,1.174 -1.376,2.122 -3.07,2.122 -1.693,0 -3.07,-0.948 -3.07,-2.122 0,-1.175 1.377,-2.127 3.07,-2.127 1.694,0 3.07,0.95 3.07,2.13 z m 4.72,7.08 c 0,1.174 -1.376,2.122 -3.07,2.122 -1.693,0 -3.07,-0.948 -3.07,-2.122 0,-1.175 1.377,-2.127 3.07,-2.127 1.694,0 3.07,0.95 3.07,2.13 z m 5.188,6.61 c 0,1.174 -1.376,2.122 -3.07,2.122 -1.693,0 -3.07,-0.948 -3.07,-2.122 0,-1.175 1.377,-2.127 3.07,-2.127 1.694,0 3.07,0.95 3.07,2.13 z m 7.09,5.66 c 0,1.174 -1.376,2.122 -3.07,2.122 -1.693,0 -3.07,-0.948 -3.07,-2.122 0,-1.175 1.377,-2.127 3.07,-2.127 1.694,0 3.07,0.95 3.07,2.13 z m 9.91,3.78 c 0,1.174 -1.376,2.122 -3.07,2.122 -1.693,0 -3.07,-0.948 -3.07,-2.122 0,-1.175 1.377,-2.127 3.07,-2.127 1.694,0 3.07,0.95 3.07,2.13 z m 9.87,0 c 0,1.174 -1.376,2.122 -3.07,2.122 -1.693,0 -3.07,-0.948 -3.07,-2.122 0,-1.175 1.377,-2.127 3.07,-2.127 1.694,0 3.07,0.95 3.07,2.13 z m 10.01,-1.64 c 0,1.174 -1.376,2.122 -3.07,2.122 -1.693,0 -3.07,-0.948 -3.07,-2.122 0,-1.175 1.377,-2.127 3.07,-2.127 1.694,0 3.07,0.95 3.07,2.13 z"
     inkscape:connector-curvature="0"
     style="stroke-width:1" />
  <path
     id="drop"
     d="m 26.048223,178.09763 -3.066,10.683 c 0,0 -0.8,3.861 2.84,4.546 3.8,-0.074 3.486,-3.627 3.223,-4.781 z"
     inkscape:connector-curvature="0"
     style="stroke-width:1" />
</svg>
