<?xml version="1.0" encoding="UTF-8" standalone="no"?>
<!-- Created with Inkscape (http://www.inkscape.org/) -->

<svg
   xmlns:dc="http://purl.org/dc/elements/1.1/"
   xmlns:cc="http://creativecommons.org/ns#"
   xmlns:rdf="http://www.w3.org/1999/02/22-rdf-syntax-ns#"
   xmlns:svg="http://www.w3.org/2000/svg"
   xmlns="http://www.w3.org/2000/svg"
   xmlns:sodipodi="http://sodipodi.sourceforge.net/DTD/sodipodi-0.dtd"
   xmlns:inkscape="http://www.inkscape.org/namespaces/inkscape"
   width="343pt"
   height="340pt"
   id="svg4278"
   version="1.1"
   inkscape:version="0.48.1 "
   sodipodi:docname="peace_symbol_peace_sign_flower_55_black_white_line_art_coloring_book_colouring.svg">
  <defs
     id="defs4280">
    <linearGradient
       id="linearGradient1001">
      <stop
         id="stop1002"
         offset="0"
         style="stop-color:#47dacd;stop-opacity:1;" />
      <stop
         id="stop1003"
         offset="1"
         style="stop-color:#ff6fd2;stop-opacity:1;" />
    </linearGradient>
    <linearGradient
       id="linearGradient3942">
      <stop
         id="stop3944"
         offset="0"
         style="stop-color:#47dacd;stop-opacity:1;" />
      <stop
         id="stop3946"
         offset="1"
         style="stop-color:#ff6fd2;stop-opacity:1;" />
    </linearGradient>
    <linearGradient
       id="linearGradient3949">
      <stop
         id="stop3951"
         offset="0"
         style="stop-color:#47dacd;stop-opacity:1;" />
      <stop
         id="stop3953"
         offset="1"
         style="stop-color:#ff6fd2;stop-opacity:1;" />
    </linearGradient>
    <linearGradient
       id="linearGradient3956">
      <stop
         id="stop3958"
         offset="0"
         style="stop-color:#47dacd;stop-opacity:1;" />
      <stop
         id="stop3960"
         offset="1"
         style="stop-color:#ff6fd2;stop-opacity:1;" />
    </linearGradient>
    <linearGradient
       id="linearGradient3963">
      <stop
         id="stop3965"
         offset="0"
         style="stop-color:#47dacd;stop-opacity:1;" />
      <stop
         id="stop3967"
         offset="1"
         style="stop-color:#ff6fd2;stop-opacity:1;" />
    </linearGradient>
    <linearGradient
       id="linearGradient3970">
      <stop
         id="stop3972"
         offset="0"
         style="stop-color:#47dacd;stop-opacity:1;" />
      <stop
         id="stop3974"
         offset="1"
         style="stop-color:#ff6fd2;stop-opacity:1;" />
    </linearGradient>
    <linearGradient
       id="linearGradient3977">
      <stop
         id="stop3979"
         offset="0"
         style="stop-color:#47dacd;stop-opacity:1;" />
      <stop
         id="stop3981"
         offset="1"
         style="stop-color:#ff6fd2;stop-opacity:1;" />
    </linearGradient>
    <linearGradient
       id="linearGradient3984">
      <stop
         id="stop3986"
         offset="0"
         style="stop-color:#47dacd;stop-opacity:1;" />
      <stop
         id="stop3988"
         offset="1"
         style="stop-color:#ff6fd2;stop-opacity:1;" />
    </linearGradient>
    <linearGradient
       id="linearGradient3991">
      <stop
         id="stop3993"
         offset="0"
         style="stop-color:#47dacd;stop-opacity:1;" />
      <stop
         id="stop3995"
         offset="1"
         style="stop-color:#ff6fd2;stop-opacity:1;" />
    </linearGradient>
    <linearGradient
       id="linearGradient3998">
      <stop
         id="stop4000"
         offset="0"
         style="stop-color:#47dacd;stop-opacity:1;" />
      <stop
         id="stop4002"
         offset="1"
         style="stop-color:#ff6fd2;stop-opacity:1;" />
    </linearGradient>
    <linearGradient
       id="linearGradient4005">
      <stop
         id="stop4007"
         offset="0"
         style="stop-color:#47dacd;stop-opacity:1;" />
      <stop
         id="stop4009"
         offset="1"
         style="stop-color:#ff6fd2;stop-opacity:1;" />
    </linearGradient>
    <linearGradient
       id="linearGradient4012">
      <stop
         id="stop4014"
         offset="0"
         style="stop-color:#47dacd;stop-opacity:1;" />
      <stop
         id="stop4016"
         offset="1"
         style="stop-color:#ff6fd2;stop-opacity:1;" />
    </linearGradient>
    <linearGradient
       id="linearGradient4019">
      <stop
         id="stop4021"
         offset="0"
         style="stop-color:#47dacd;stop-opacity:1;" />
      <stop
         id="stop4023"
         offset="1"
         style="stop-color:#ff6fd2;stop-opacity:1;" />
    </linearGradient>
    <linearGradient
       id="linearGradient4026">
      <stop
         id="stop4028"
         offset="0"
         style="stop-color:#47dacd;stop-opacity:1;" />
      <stop
         id="stop4030"
         offset="1"
         style="stop-color:#ff6fd2;stop-opacity:1;" />
    </linearGradient>
    <linearGradient
       id="linearGradient4033">
      <stop
         id="stop4035"
         offset="0"
         style="stop-color:#47dacd;stop-opacity:1;" />
      <stop
         id="stop4037"
         offset="1"
         style="stop-color:#ff6fd2;stop-opacity:1;" />
    </linearGradient>
    <linearGradient
       id="linearGradient4040">
      <stop
         id="stop4042"
         offset="0"
         style="stop-color:#47dacd;stop-opacity:1;" />
      <stop
         id="stop4044"
         offset="1"
         style="stop-color:#ff6fd2;stop-opacity:1;" />
    </linearGradient>
    <linearGradient
       id="linearGradient4047">
      <stop
         id="stop4049"
         offset="0"
         style="stop-color:#47dacd;stop-opacity:1;" />
      <stop
         id="stop4051"
         offset="1"
         style="stop-color:#ff6fd2;stop-opacity:1;" />
    </linearGradient>
    <linearGradient
       id="linearGradient4054">
      <stop
         id="stop4056"
         offset="0"
         style="stop-color:#47dacd;stop-opacity:1;" />
      <stop
         id="stop4058"
         offset="1"
         style="stop-color:#ff6fd2;stop-opacity:1;" />
    </linearGradient>
    <linearGradient
       id="linearGradient4061">
      <stop
         id="stop4063"
         offset="0"
         style="stop-color:#47dacd;stop-opacity:1;" />
      <stop
         id="stop4065"
         offset="1"
         style="stop-color:#ff6fd2;stop-opacity:1;" />
    </linearGradient>
    <linearGradient
       id="linearGradient4068">
      <stop
         id="stop4070"
         offset="0"
         style="stop-color:#47dacd;stop-opacity:1;" />
      <stop
         id="stop4072"
         offset="1"
         style="stop-color:#ff6fd2;stop-opacity:1;" />
    </linearGradient>
    <linearGradient
       id="linearGradient4075">
      <stop
         id="stop4077"
         offset="0"
         style="stop-color:#47dacd;stop-opacity:1;" />
      <stop
         id="stop4079"
         offset="1"
         style="stop-color:#ff6fd2;stop-opacity:1;" />
    </linearGradient>
    <linearGradient
       id="linearGradient4082">
      <stop
         id="stop4084"
         offset="0"
         style="stop-color:#47dacd;stop-opacity:1;" />
      <stop
         id="stop4086"
         offset="1"
         style="stop-color:#ff6fd2;stop-opacity:1;" />
    </linearGradient>
    <linearGradient
       id="linearGradient1026">
      <stop
         id="stop1027"
         offset="0"
         style="stop-color:#955547;stop-opacity:0.1765;" />
      <stop
         id="stop1028"
         offset="1"
         style="stop-color:#ddcf52;stop-opacity:1;" />
    </linearGradient>
    <linearGradient
       id="linearGradient4093">
      <stop
         id="stop4095"
         offset="0"
         style="stop-color:#955547;stop-opacity:0.1765;" />
      <stop
         id="stop4097"
         offset="1"
         style="stop-color:#ddcf52;stop-opacity:1;" />
    </linearGradient>
    <linearGradient
       id="linearGradient4100">
      <stop
         id="stop4102"
         offset="0"
         style="stop-color:#955547;stop-opacity:0.1765;" />
      <stop
         id="stop4104"
         offset="1"
         style="stop-color:#ddcf52;stop-opacity:1;" />
    </linearGradient>
    <linearGradient
       id="linearGradient4107">
      <stop
         id="stop4109"
         offset="0"
         style="stop-color:#955547;stop-opacity:0.1765;" />
      <stop
         id="stop4111"
         offset="1"
         style="stop-color:#ddcf52;stop-opacity:1;" />
    </linearGradient>
    <linearGradient
       id="linearGradient4114">
      <stop
         id="stop4116"
         offset="0"
         style="stop-color:#955547;stop-opacity:0.1765;" />
      <stop
         id="stop4118"
         offset="1"
         style="stop-color:#ddcf52;stop-opacity:1;" />
    </linearGradient>
    <linearGradient
       id="linearGradient4121">
      <stop
         id="stop4123"
         offset="0"
         style="stop-color:#955547;stop-opacity:0.1765;" />
      <stop
         id="stop4125"
         offset="1"
         style="stop-color:#ddcf52;stop-opacity:1;" />
    </linearGradient>
    <linearGradient
       id="linearGradient4128">
      <stop
         id="stop4130"
         offset="0"
         style="stop-color:#955547;stop-opacity:0.1765;" />
      <stop
         id="stop4132"
         offset="1"
         style="stop-color:#ddcf52;stop-opacity:1;" />
    </linearGradient>
    <linearGradient
       id="linearGradient4135">
      <stop
         id="stop4137"
         offset="0"
         style="stop-color:#955547;stop-opacity:0.1765;" />
      <stop
         id="stop4139"
         offset="1"
         style="stop-color:#ddcf52;stop-opacity:1;" />
    </linearGradient>
    <linearGradient
       id="linearGradient4142">
      <stop
         id="stop4144"
         offset="0"
         style="stop-color:#955547;stop-opacity:0.1765;" />
      <stop
         id="stop4146"
         offset="1"
         style="stop-color:#ddcf52;stop-opacity:1;" />
    </linearGradient>
    <linearGradient
       id="linearGradient4149">
      <stop
         id="stop4151"
         offset="0"
         style="stop-color:#955547;stop-opacity:0.1765;" />
      <stop
         id="stop4153"
         offset="1"
         style="stop-color:#ddcf52;stop-opacity:1;" />
    </linearGradient>
    <linearGradient
       id="linearGradient4156">
      <stop
         id="stop4158"
         offset="0"
         style="stop-color:#955547;stop-opacity:0.1765;" />
      <stop
         id="stop4160"
         offset="1"
         style="stop-color:#ddcf52;stop-opacity:1;" />
    </linearGradient>
    <linearGradient
       id="linearGradient4163">
      <stop
         id="stop4165"
         offset="0"
         style="stop-color:#955547;stop-opacity:0.1765;" />
      <stop
         id="stop4167"
         offset="1"
         style="stop-color:#ddcf52;stop-opacity:1;" />
    </linearGradient>
    <linearGradient
       id="linearGradient4170">
      <stop
         id="stop4172"
         offset="0"
         style="stop-color:#955547;stop-opacity:0.1765;" />
      <stop
         id="stop4174"
         offset="1"
         style="stop-color:#ddcf52;stop-opacity:1;" />
    </linearGradient>
    <linearGradient
       id="linearGradient4177">
      <stop
         id="stop4179"
         offset="0"
         style="stop-color:#955547;stop-opacity:0.1765;" />
      <stop
         id="stop4181"
         offset="1"
         style="stop-color:#ddcf52;stop-opacity:1;" />
    </linearGradient>
    <linearGradient
       id="linearGradient4184">
      <stop
         id="stop4186"
         offset="0"
         style="stop-color:#955547;stop-opacity:0.1765;" />
      <stop
         id="stop4188"
         offset="1"
         style="stop-color:#ddcf52;stop-opacity:1;" />
    </linearGradient>
    <linearGradient
       id="linearGradient4191">
      <stop
         id="stop4193"
         offset="0"
         style="stop-color:#955547;stop-opacity:0.1765;" />
      <stop
         id="stop4195"
         offset="1"
         style="stop-color:#ddcf52;stop-opacity:1;" />
    </linearGradient>
    <linearGradient
       id="linearGradient4198">
      <stop
         id="stop4200"
         offset="0"
         style="stop-color:#955547;stop-opacity:0.1765;" />
      <stop
         id="stop4202"
         offset="1"
         style="stop-color:#ddcf52;stop-opacity:1;" />
    </linearGradient>
    <linearGradient
       id="linearGradient4205">
      <stop
         id="stop4207"
         offset="0"
         style="stop-color:#955547;stop-opacity:0.1765;" />
      <stop
         id="stop4209"
         offset="1"
         style="stop-color:#ddcf52;stop-opacity:1;" />
    </linearGradient>
    <linearGradient
       id="linearGradient4212">
      <stop
         id="stop4214"
         offset="0"
         style="stop-color:#955547;stop-opacity:0.1765;" />
      <stop
         id="stop4216"
         offset="1"
         style="stop-color:#ddcf52;stop-opacity:1;" />
    </linearGradient>
    <linearGradient
       id="linearGradient4219">
      <stop
         id="stop4221"
         offset="0"
         style="stop-color:#955547;stop-opacity:0.1765;" />
      <stop
         id="stop4223"
         offset="1"
         style="stop-color:#ddcf52;stop-opacity:1;" />
    </linearGradient>
    <linearGradient
       id="linearGradient4226">
      <stop
         id="stop4228"
         offset="0"
         style="stop-color:#955547;stop-opacity:0.1765;" />
      <stop
         id="stop4230"
         offset="1"
         style="stop-color:#ddcf52;stop-opacity:1;" />
    </linearGradient>
  </defs>
  <sodipodi:namedview
     pagecolor="#ffffff"
     bordercolor="#666666"
     borderopacity="1.0"
     inkscape:pageopacity="0.0"
     inkscape:pageshadow="2"
     inkscape:zoom="0.8"
     inkscape:cx="23.12381"
     inkscape:cy="210"
     inkscape:document-units="pt"
     inkscape:current-layer="layer1"
     id="namedview4282"
     showgrid="false"
     inkscape:window-width="1358"
     inkscape:window-height="754"
     inkscape:window-x="150"
     inkscape:window-y="150"
     inkscape:window-maximized="0" />
  <metadata
     id="metadata4284">
    <rdf:RDF>
      <cc:Work
         rdf:about="">
        <dc:format>image/svg+xml</dc:format>
        <dc:type
           rdf:resource="http://purl.org/dc/dcmitype/StillImage" />
        <dc:title />
      </cc:Work>
    </rdf:RDF>
  </metadata>
  <g
     inkscape:label="Layer 1"
     inkscape:groupmode="layer"
     id="layer1">
    <g
       id="g3205"
       style="stroke:#000000;fill:#ffffff;stroke-width:1.25;stroke-miterlimit:4;stroke-dasharray:none">
      <path
         inkscape:connector-curvature="0"
         d="m 218.87526,212.2811 c 0,0 -20.27514,200.29967 -65.17014,190.49442 -44.89499,-9.80462 63.722,-191.89495 65.17014,-190.49442 z"
         id="path1120"
         style="fill:#ffffff;fill-opacity:1;fill-rule:evenodd;stroke:#000000;stroke-width:1.25;stroke-miterlimit:4;stroke-dasharray:none" />
      <path
         inkscape:connector-curvature="0"
         d="m 218.84075,215.88004 c 0,0 -70.68019,189.29101 -111.69286,169.08915 C 66.135215,364.76733 217.7944,214.1774 218.84075,215.88004 z"
         id="path1121"
         style="fill:#ffffff;fill-opacity:1;fill-rule:evenodd;stroke:#000000;stroke-width:1.25;stroke-miterlimit:4;stroke-dasharray:none" />
      <path
         inkscape:connector-curvature="0"
         d="m 220.65003,214.40712 c 0,0 -136.683218,151.75071 -167.364528,118.5693 -30.68131,-33.1814 167.025308,-120.52296 167.364528,-118.5693 z"
         id="path1122"
         style="fill:#ffffff;fill-opacity:1;fill-rule:evenodd;stroke:#000000;stroke-width:1.25;stroke-miterlimit:4;stroke-dasharray:none" />
      <path
         inkscape:connector-curvature="0"
         d="m 220.22504,216.50806 c 0,0 -183.095352,95.62782 -199.766766,54.13602 C 3.7868597,229.15228 220.61746,214.56381 220.22504,216.50806 z"
         id="path1123"
         style="fill:#ffffff;fill-opacity:1;fill-rule:evenodd;stroke:#000000;stroke-width:1.25;stroke-miterlimit:4;stroke-dasharray:none" />
      <path
         inkscape:connector-curvature="0"
         d="m 219.7865,217.33008 c 0,0 -205.659571,30.64767 -206.965502,-13.8492 -1.306576,-44.49686 208.009602,12.145 206.965502,13.8492 z"
         id="path1124"
         style="fill:#ffffff;fill-opacity:1;fill-rule:evenodd;stroke:#000000;stroke-width:1.25;stroke-miterlimit:4;stroke-dasharray:none" />
      <path
         inkscape:connector-curvature="0"
         d="m 220.4988,223.07885 c 0,0 -193.478627,-74.07589 -171.355517,-113.11074 C 71.266071,70.932954 222.29034,222.11863 220.4988,223.07885 z"
         id="path1125"
         style="fill:#ffffff;fill-opacity:1;fill-rule:evenodd;stroke:#000000;stroke-width:1.25;stroke-miterlimit:4;stroke-dasharray:none" />
      <path
         inkscape:connector-curvature="0"
         d="m 216.7345,214.68196 c 0,0 -207.0554745,-20.00725 -196.828586,-63.40914 10.226566,-43.40221 198.279936,62.01143 196.828586,63.40914 z"
         id="path1126"
         style="fill:#ffffff;fill-opacity:1;fill-rule:evenodd;stroke:#000000;stroke-width:1.25;stroke-miterlimit:4;stroke-dasharray:none" />
      <path
         inkscape:connector-curvature="0"
         d="m 217.63639,215.72491 c 0,0 -170.949224,-114.74975 -140.215354,-147.885398 C 108.15491,34.703861 219.60658,215.18463 217.63639,215.72491 z"
         id="path1127"
         style="fill:#ffffff;fill-opacity:1;fill-rule:evenodd;stroke:#000000;stroke-width:1.25;stroke-miterlimit:4;stroke-dasharray:none" />
      <path
         inkscape:connector-curvature="0"
         d="m 218.29033,221.21984 c 0,0 -129.972996,-157.168863 -90.73897,-180.441601 39.23467,-23.272738 92.78686,180.467611 90.73897,180.441601 z"
         id="path1128"
         style="fill:#ffffff;fill-opacity:1;fill-rule:evenodd;stroke:#000000;stroke-width:1.25;stroke-miterlimit:4;stroke-dasharray:none" />
      <path
         inkscape:connector-curvature="0"
         d="m 213.51352,220.6758 c 0,0 -82.67927,-184.688306 -38.49948,-197.166432 44.18012,-12.477813 40.46837,197.712352 38.49948,197.166432 z"
         id="path1129"
         style="fill:#ffffff;fill-opacity:1;fill-rule:evenodd;stroke:#000000;stroke-width:1.25;stroke-miterlimit:4;stroke-dasharray:none" />
      <path
         inkscape:connector-curvature="0"
         d="m 214.98745,223.63981 c 0,0 -32.91977,-198.722395 13.07833,-200.252663 45.99811,-1.529642 -11.31032,201.252363 -13.07833,200.252663 z"
         id="path1130"
         style="fill:#ffffff;fill-opacity:1;fill-rule:evenodd;stroke:#000000;stroke-width:1.25;stroke-miterlimit:4;stroke-dasharray:none" />
      <path
         inkscape:connector-curvature="0"
         d="m 213.62477,215.21879 c 0,0 20.27481,-200.299357 65.17013,-190.494421 44.89467,9.804936 -63.722,191.895261 -65.17013,190.494421 z"
         id="path1131"
         style="fill:#ffffff;fill-opacity:1;fill-rule:evenodd;stroke:#000000;stroke-width:1.25;stroke-miterlimit:4;stroke-dasharray:none" />
      <path
         inkscape:connector-curvature="0"
         d="m 213.65895,211.61985 c 0,0 70.68019,-189.291011 111.69319,-169.089151 C 366.36481,62.732872 214.70531,213.32249 213.65895,211.61985 z"
         id="path1132"
         style="fill:#ffffff;fill-opacity:1;fill-rule:evenodd;stroke:#000000;stroke-width:1.25;stroke-miterlimit:4;stroke-dasharray:none" />
      <path
         inkscape:connector-curvature="0"
         d="m 211.84967,213.09277 c 0,0 136.68322,-151.750396 167.36453,-118.569304 C 409.89551,127.70487 212.18889,215.04643 211.84967,213.09277 z"
         id="path1133"
         style="fill:#ffffff;fill-opacity:1;fill-rule:evenodd;stroke:#000000;stroke-width:1.25;stroke-miterlimit:4;stroke-dasharray:none" />
      <path
         inkscape:connector-curvature="0"
         d="m 212.27434,210.99183 c 0,0 183.096,-95.62782 199.76709,-54.13602 16.67109,41.4918 -200.15919,56.08027 -199.76709,54.13602 z"
         id="path1134"
         style="fill:#ffffff;fill-opacity:1;fill-rule:evenodd;stroke:#000000;stroke-width:1.25;stroke-miterlimit:4;stroke-dasharray:none" />
      <path
         inkscape:connector-curvature="0"
         d="m 212.71352,210.16981 c 0,0 205.65925,-30.64767 206.96551,13.8492 1.30625,44.49686 -208.00993,-12.145 -206.96551,-13.8492 z"
         id="path1135"
         style="fill:#ffffff;fill-opacity:1;fill-rule:evenodd;stroke:#000000;stroke-width:1.25;stroke-miterlimit:4;stroke-dasharray:none" />
      <path
         inkscape:connector-curvature="0"
         d="m 212.0009,204.42136 c 0,0 193.47863,74.07557 171.35584,113.11073 C 361.23363,356.56694 210.20968,205.38157 212.0009,204.42136 z"
         id="path1136"
         style="fill:#ffffff;fill-opacity:1;fill-rule:evenodd;stroke:#000000;stroke-width:1.25;stroke-miterlimit:4;stroke-dasharray:none" />
      <path
         inkscape:connector-curvature="0"
         d="m 215.76521,212.81793 c 0,0 207.05514,20.00725 196.8289,63.40914 -10.22689,43.40221 -198.27994,-62.01143 -196.8289,-63.40914 z"
         id="path1137"
         style="fill:#ffffff;fill-opacity:1;fill-rule:evenodd;stroke:#000000;stroke-width:1.25;stroke-miterlimit:4;stroke-dasharray:none" />
      <path
         inkscape:connector-curvature="0"
         d="m 214.86331,211.77498 c 0,0 170.94923,114.74975 140.21568,147.8854 C 324.3448,392.79603 212.89313,212.31526 214.86331,211.77498 z"
         id="path1138"
         style="fill:#ffffff;fill-opacity:1;fill-rule:evenodd;stroke:#000000;stroke-width:1.25;stroke-miterlimit:4;stroke-dasharray:none" />
      <path
         inkscape:connector-curvature="0"
         d="m 214.20937,206.28005 c 0,0 129.973,157.16886 90.73897,180.4416 -39.23435,23.27274 -92.78686,-180.46761 -90.73897,-180.4416 z"
         id="path1139"
         style="fill:#ffffff;fill-opacity:1;fill-rule:evenodd;stroke:#000000;stroke-width:1.25;stroke-miterlimit:4;stroke-dasharray:none" />
      <path
         inkscape:connector-curvature="0"
         d="m 218.98618,206.82409 c 0,0 82.6796,184.68831 38.49948,197.16643 -44.18012,12.47782 -40.46837,-197.71235 -38.49948,-197.16643 z"
         id="path1140"
         style="fill:#ffffff;fill-opacity:1;fill-rule:evenodd;stroke:#000000;stroke-width:1.25;stroke-miterlimit:4;stroke-dasharray:none" />
      <path
         inkscape:connector-curvature="0"
         d="m 217.51257,203.86008 c 0,0 32.91945,198.7224 -13.07833,200.25266 -45.99842,1.52964 11.31001,-201.25236 13.07833,-200.25266 z"
         id="path1141"
         style="fill:#ffffff;fill-opacity:1;fill-rule:evenodd;stroke:#000000;stroke-width:1.25;stroke-miterlimit:4;stroke-dasharray:none" />
      <g
         id="g1142"
         transform="matrix(0.64492016,0,0,0.58246716,-90.121487,240.86136)"
         style="stroke:#000000;fill:#ffffff;stroke-width:2.03948875;stroke-miterlimit:4;stroke-dasharray:none">
        <path
           inkscape:connector-curvature="0"
           d="m 470.7147,-40.13819 c 0,0 21.6072,100.43963 -8.5842,101.21299 -30.1916,0.77331 7.4237,-101.71818 8.5842,-101.21299 z"
           id="path1143"
           style="fill:#ffffff;fill-opacity:1;fill-rule:evenodd;stroke:#000000;stroke-width:2.03948875;stroke-miterlimit:4;stroke-dasharray:none" />
        <path
           inkscape:connector-curvature="0"
           d="m 471.4919,-37.87845 c 0,0 41.6689,93.9079 12.2721,100.83231 -29.397,6.9244 -13.5114,-101.08978 -12.2721,-100.83231 z"
           id="path1144"
           style="fill:#ffffff;fill-opacity:1;fill-rule:evenodd;stroke:#000000;stroke-width:2.03948875;stroke-miterlimit:4;stroke-dasharray:none" />
        <path
           inkscape:connector-curvature="0"
           d="m 469.8006,-40.65328 c 0,0 71.1373,74.12476 45.851,90.6391 -25.2864,16.5144 -47.1039,-90.45949 -45.851,-90.6391 z"
           id="path1145"
           style="fill:#ffffff;fill-opacity:1;fill-rule:evenodd;stroke:#000000;stroke-width:2.03948875;stroke-miterlimit:4;stroke-dasharray:none" />
        <path
           inkscape:connector-curvature="0"
           d="m 469.4233,-40.26615 c 0,0 93.6504,42.2444 76.348,66.99809 -17.3026,24.75379 -77.4435,-66.36415 -76.348,-66.99809 z"
           id="path1146"
           style="fill:#ffffff;fill-opacity:1;fill-rule:evenodd;stroke:#000000;stroke-width:2.03948875;stroke-miterlimit:4;stroke-dasharray:none" />
        <path
           inkscape:connector-curvature="0"
           d="m 469.2983,-39.37007 c 0,0 102.0063,12.23527 92.918,41.03667 -9.0885,28.80156 -93.7732,-40.10354 -92.918,-41.03667 z"
           id="path1147"
           style="fill:#ffffff;fill-opacity:1;fill-rule:evenodd;stroke:#000000;stroke-width:2.03948875;stroke-miterlimit:4;stroke-dasharray:none" />
        <path
           inkscape:connector-curvature="0"
           d="m 468.7667,-38.30878 c 0,0 99.5121,-25.54077 101.4723,4.59684 1.9601,30.13782 -101.9314,-3.41733 -101.4723,-4.59684 z"
           id="path1148"
           style="fill:#ffffff;fill-opacity:1;fill-rule:evenodd;stroke:#000000;stroke-width:2.03948875;stroke-miterlimit:4;stroke-dasharray:none" />
        <path
           inkscape:connector-curvature="0"
           d="m 466.7307,-37.50695 c 0,0 85.3836,-57.13706 97.2405,-29.36062 11.857,27.77666 -97.2818,30.62565 -97.2405,29.36062 z"
           id="path1149"
           style="fill:#ffffff;fill-opacity:1;fill-rule:evenodd;stroke:#000000;stroke-width:2.03948875;stroke-miterlimit:4;stroke-dasharray:none" />
        <path
           inkscape:connector-curvature="0"
           d="m 467.5423,-37.57587 c 0,0 56.9054,-85.53813 78.5173,-64.44213 21.6121,21.09616 -78.0698,65.62608 -78.5173,64.44213 z"
           id="path1150"
           style="fill:#ffffff;fill-opacity:1;fill-rule:evenodd;stroke:#000000;stroke-width:2.03948875;stroke-miterlimit:4;stroke-dasharray:none" />
        <path
           inkscape:connector-curvature="0"
           d="m 467.7833,-38.11514 c 0,0 32.6443,-97.41326 59.0076,-82.67926 26.3635,14.7342 -58.267,83.70566 -59.0076,82.67926 z"
           id="path1151"
           style="fill:#ffffff;fill-opacity:1;fill-rule:evenodd;stroke:#000000;stroke-width:2.03948875;stroke-miterlimit:4;stroke-dasharray:none" />
        <path
           inkscape:connector-curvature="0"
           d="m 471.2211,-36.48297 c 0,0 0.7141,-102.73503 30.3532,-96.93523 29.6394,5.7999 -29.33,97.68025 -30.3532,96.93523 z"
           id="path1152"
           style="fill:#ffffff;fill-opacity:1;fill-rule:evenodd;stroke:#000000;stroke-width:2.03948875;stroke-miterlimit:4;stroke-dasharray:none" />
        <path
           inkscape:connector-curvature="0"
           d="m 469.6345,-35.77031 c 0,0 -23.8438,-99.93229 6.3227,-101.37939 30.1669,-1.447 -5.1512,101.85846 -6.3227,101.37939 z"
           id="path1153"
           style="fill:#ffffff;fill-opacity:1;fill-rule:evenodd;stroke:#000000;stroke-width:2.03948875;stroke-miterlimit:4;stroke-dasharray:none" />
        <path
           inkscape:connector-curvature="0"
           d="m 468.6923,-36.40108 c 0,0 -50.285,-89.59022 -21.6665,-99.23872 28.6189,-9.6485 22.9244,99.37886 21.6665,99.23872 z"
           id="path1154"
           style="fill:#ffffff;fill-opacity:1;fill-rule:evenodd;stroke:#000000;stroke-width:2.03948875;stroke-miterlimit:4;stroke-dasharray:none" />
        <path
           inkscape:connector-curvature="0"
           d="m 472.7836,-35.03701 c 0,0 -76.5248,-68.54889 -52.5561,-86.92309 23.9692,-18.3743 53.7918,86.64947 52.5561,86.92309 z"
           id="path1155"
           style="fill:#ffffff;fill-opacity:1;fill-rule:evenodd;stroke:#000000;stroke-width:2.03948875;stroke-miterlimit:4;stroke-dasharray:none" />
        <path
           inkscape:connector-curvature="0"
           d="m 473.311,-32.84506 c 0,0 -93.2279,-43.16888 -75.6815,-67.75004 17.5468,-24.5815 76.7832,67.12696 75.6815,67.75004 z"
           id="path1156"
           style="fill:#ffffff;fill-opacity:1;fill-rule:evenodd;stroke:#000000;stroke-width:2.03948875;stroke-miterlimit:4;stroke-dasharray:none" />
        <path
           inkscape:connector-curvature="0"
           d="m 474.074,-35.38011 c 0,0 -102.6425,-4.41599 -95.7784,-33.82676 6.8643,-29.41123 96.5598,32.83111 95.7784,33.82676 z"
           id="path1157"
           style="fill:#ffffff;fill-opacity:1;fill-rule:evenodd;stroke:#000000;stroke-width:2.03948875;stroke-miterlimit:4;stroke-dasharray:none" />
        <path
           inkscape:connector-curvature="0"
           d="m 473.5412,-34.24078 c 0,0 -101.4268,16.35805 -100.6301,-13.83259 0.7969,-30.19113 101.1948,12.6999 100.6301,13.83259 z"
           id="path1158"
           style="fill:#ffffff;fill-opacity:1;fill-rule:evenodd;stroke:#000000;stroke-width:2.03948875;stroke-miterlimit:4;stroke-dasharray:none" />
        <path
           inkscape:connector-curvature="0"
           d="m 474.4219,-36.55442 c 0,0 -93.5741,42.413071 -100.7317,13.07234 -7.1575,-29.34126 100.9792,-14.31355 100.7317,-13.07234 z"
           id="path1159"
           style="fill:#ffffff;fill-opacity:1;fill-rule:evenodd;stroke:#000000;stroke-width:2.03948875;stroke-miterlimit:4;stroke-dasharray:none" />
        <path
           inkscape:connector-curvature="0"
           d="m 475.7545,-35.8551 c 0,0 -80.7388,63.53138 -94.6958,36.74873 -13.9571,-26.78319 94.6397,-38.01314 94.6958,-36.74873 z"
           id="path1160"
           style="fill:#ffffff;fill-opacity:1;fill-rule:evenodd;stroke:#000000;stroke-width:2.03948875;stroke-miterlimit:4;stroke-dasharray:none" />
        <path
           inkscape:connector-curvature="0"
           d="m 474.9719,-36.28066 c 0,0 -58.9636,84.13256 -80.0574,62.51867 -21.094,-21.614372 79.6387,-63.71307 80.0574,-62.51867 z"
           id="path1161"
           style="fill:#ffffff;fill-opacity:1;fill-rule:evenodd;stroke:#000000;stroke-width:2.03948875;stroke-miterlimit:4;stroke-dasharray:none" />
        <path
           inkscape:connector-curvature="0"
           d="m 473.0148,-36.43371 c 0,0 -33.4937,97.12451 -59.7273,82.16098 -26.2339,-14.96393 58.9957,-83.19373 59.7273,-82.16098 z"
           id="path1162"
           style="fill:#ffffff;fill-opacity:1;fill-rule:evenodd;stroke:#000000;stroke-width:2.03948875;stroke-miterlimit:4;stroke-dasharray:none" />
        <path
           inkscape:connector-curvature="0"
           d="m 473.8537,-37.53209 c 0,0 -5.1759,102.60707 -34.535,95.52545 -29.3596,-7.08191 33.5451,-96.31413 34.535,-95.52545 z"
           id="path1163"
           style="fill:#ffffff;fill-opacity:1;fill-rule:evenodd;stroke:#000000;stroke-width:2.03948875;stroke-miterlimit:4;stroke-dasharray:none" />
      </g>
      <path
         d="m 93.75,72.5 a 11.25,11.25 0 1 1 -22.5,0 11.25,11.25 0 1 1 22.5,0 z"
         id="path1164"
         sodipodi:cx="82.5"
         sodipodi:cy="72.5"
         sodipodi:rx="11.25"
         sodipodi:ry="11.25"
         sodipodi:type="arc"
         style="fill:#ffffff;fill-opacity:1;fill-rule:evenodd;stroke:#000000;stroke-width:1.09705988;stroke-miterlimit:4;stroke-dasharray:none"
         transform="matrix(1.1585798,0,0,1.1205556,119.48974,136.77993)" />
      <g
         id="g5"
         transform="matrix(0.09150625,0,0,0.09150625,196.5352,195.59686)"
         style="stroke:#000000;fill:#ffffff;stroke-width:13.66026911;stroke-miterlimit:4;stroke-dasharray:none">
        <path
           id="path7"
           d="m 415.234,131.507 c 25.699,58.792 19.148,136.835 -15.082,190.187 C 353.045,397.181 267.37,434.724 180.638,421.455 110.659,412.085 44.119,361.532 16.891,294.923 -16.645,221.451 1.366,126.634 56.667,68.643 118.689,1.538 220.103,-18.31 302.141,17.735 350.235,37.994 395.97,82.607 415.234,131.507 z"
           inkscape:connector-curvature="0"
           style="stroke:#000000;fill:#ffffff;stroke-width:13.66026911;stroke-miterlimit:4;stroke-dasharray:none" />
        <path
           id="path9"
           d="m 134.732,60.022 c -48.6,27 -86.4,75.6 -91.8,131.4 -1.8,36 -1.8,75.6 21.6,104.4 23.4,10.8 43.2,-12.6 59.4,-28.8 1.8,-3.6 3.6,-5.4 5.4,-9 7.2,-7.2 12.6,-14.4 18,-21.6 9,-9 16.2,-16.2 27,-23.4 9,-9 16.2,-18 18,-30.6 5.4,-32.4 0,-63 5.4,-95.4 1.8,-16.2 3.6,-41.4 -18,-43.2 -16.199,0 -30.6,9 -45,16.2 l 0,0 z"
           inkscape:connector-curvature="0"
           style="fill:#ffffff;stroke:#000000;stroke-width:13.66026911;stroke-miterlimit:4;stroke-dasharray:none" />
        <path
           id="path11"
           d="m 188.732,263.422 c -3.6,32.4 9,66.6 7.2,99 -1.8,5.399 -3.6,12.6 -10.8,14.399 -19.8,1.8 -36,-3.601 -52.2,-12.601 -9,-7.199 -19.8,-12.6 -21.6,-25.199 18.001,-32.399 46.8,-55.799 77.4,-75.599 l 0,0 z"
           inkscape:connector-curvature="0"
           style="fill:#ffffff;stroke:#000000;stroke-width:13.66026911;stroke-miterlimit:4;stroke-dasharray:none" />
        <path
           id="path13"
           d="m 297.052,59.921 c 60.385,32.13 97.226,97.731 90.059,166.625 -3.375,26.241 -11.041,51.457 -25.887,72.509 -2.94,3.344 -7.222,2.1 -11.091,1.519 l -4.234,-2.101 c -24.059,-11.936 -48.216,-46.997 -67.413,-65.992 -20.081,-19.873 -38.227,-31.903 -40.714,-61.593 -2.831,-33.802 -5.938,-72.299 -0.042,-105.823 5.995,-34.086 39.182,-14.892 59.322,-5.144 z"
           inkscape:connector-curvature="0"
           style="fill:#ffffff;stroke:#000000;stroke-width:13.66026911;stroke-miterlimit:4;stroke-dasharray:none" />
        <path
           id="path15"
           d="m 240.236,261.344 c -1.037,14.428 -2.454,29.916 -2.474,44.573 -0.021,16.025 -10.021,63.335 8.802,71.776 26.921,11.998 83.908,-22.469 63.039,-52.375 -16.8,-24.068 -43.73,-49.989 -69.367,-63.974 z"
           inkscape:connector-curvature="0"
           style="fill:#ffffff;stroke:#000000;stroke-width:13.66026911;stroke-miterlimit:4;stroke-dasharray:none" />
      </g>
    </g>
  </g>
</svg>
